<svg width="79" height="24" viewBox="0 0 79 24" fill="none" xmlns="http://www.w3.org/2000/svg">
<path d="M2.028 18.5V5.9H6.438C7.422 5.9 8.238 6.068 8.886 6.404C9.534 6.728 10.014 7.178 10.326 7.754C10.65 8.318 10.812 8.96 10.812 9.68C10.812 10.364 10.656 10.994 10.344 11.57C10.044 12.134 9.57 12.584 8.922 12.92C8.274 13.256 7.446 13.424 6.438 13.424H3.936V18.5H2.028ZM3.936 11.858H6.348C7.248 11.858 7.89 11.666 8.274 11.282C8.67 10.886 8.868 10.352 8.868 9.68C8.868 8.984 8.67 8.444 8.274 8.06C7.89 7.664 7.248 7.466 6.348 7.466H3.936V11.858ZM12.6259 18.5V9.572H14.3359L14.4979 11.264C14.8099 10.676 15.2419 10.214 15.7939 9.878C16.3579 9.53 17.0359 9.356 17.8279 9.356V11.354H17.3059C16.7779 11.354 16.3039 11.444 15.8839 11.624C15.4759 11.792 15.1459 12.086 14.8939 12.506C14.6539 12.914 14.5339 13.484 14.5339 14.216V18.5H12.6259ZM20.5438 7.88C20.1838 7.88 19.8838 7.772 19.6438 7.556C19.4158 7.328 19.3018 7.046 19.3018 6.71C19.3018 6.374 19.4158 6.098 19.6438 5.882C19.8838 5.654 20.1838 5.54 20.5438 5.54C20.9038 5.54 21.1978 5.654 21.4258 5.882C21.6658 6.098 21.7858 6.374 21.7858 6.71C21.7858 7.046 21.6658 7.328 21.4258 7.556C21.1978 7.772 20.9038 7.88 20.5438 7.88ZM19.5898 18.5V9.572H21.4978V18.5H19.5898ZM28.2465 18.716C27.3705 18.716 26.5845 18.518 25.8885 18.122C25.2045 17.726 24.6645 17.18 24.2685 16.484C23.8845 15.776 23.6925 14.96 23.6925 14.036C23.6925 13.112 23.8845 12.302 24.2685 11.606C24.6645 10.898 25.2045 10.346 25.8885 9.95C26.5845 9.554 27.3705 9.356 28.2465 9.356C29.3505 9.356 30.2745 9.644 31.0185 10.22C31.7745 10.796 32.2605 11.576 32.4765 12.56H30.4785C30.3585 12.068 30.0945 11.684 29.6865 11.408C29.2785 11.132 28.7985 10.994 28.2465 10.994C27.7785 10.994 27.3465 11.114 26.9505 11.354C26.5545 11.582 26.2365 11.924 25.9965 12.38C25.7565 12.824 25.6365 13.376 25.6365 14.036C25.6365 14.696 25.7565 15.254 25.9965 15.71C26.2365 16.154 26.5545 16.496 26.9505 16.736C27.3465 16.976 27.7785 17.096 28.2465 17.096C28.7985 17.096 29.2785 16.958 29.6865 16.682C30.0945 16.406 30.3585 16.016 30.4785 15.512H32.4765C32.2725 16.472 31.7925 17.246 31.0365 17.834C30.2805 18.422 29.3505 18.716 28.2465 18.716ZM35.6258 7.88C35.2658 7.88 34.9658 7.772 34.7258 7.556C34.4978 7.328 34.3838 7.046 34.3838 6.71C34.3838 6.374 34.4978 6.098 34.7258 5.882C34.9658 5.654 35.2658 5.54 35.6258 5.54C35.9858 5.54 36.2798 5.654 36.5078 5.882C36.7478 6.098 36.8678 6.374 36.8678 6.71C36.8678 7.046 36.7478 7.328 36.5078 7.556C36.2798 7.772 35.9858 7.88 35.6258 7.88ZM34.6718 18.5V9.572H36.5798V18.5H34.6718ZM39.0986 18.5V9.572H40.7906L40.9346 11.138C41.2106 10.586 41.6126 10.154 42.1406 9.842C42.6806 9.518 43.2986 9.356 43.9946 9.356C45.0746 9.356 45.9206 9.692 46.5326 10.364C47.1566 11.036 47.4686 12.038 47.4686 13.37V18.5H45.5786V13.568C45.5786 11.84 44.8706 10.976 43.4546 10.976C42.7466 10.976 42.1586 11.228 41.6906 11.732C41.2346 12.236 41.0066 12.956 41.0066 13.892V18.5H39.0986ZM53.3698 15.764C52.9018 15.764 52.4698 15.71 52.0738 15.602L51.2998 16.358C51.4318 16.442 51.5938 16.514 51.7858 16.574C51.9778 16.634 52.2478 16.688 52.5958 16.736C52.9438 16.784 53.4178 16.832 54.0178 16.88C55.2058 16.988 56.0638 17.276 56.5918 17.744C57.1198 18.2 57.3838 18.812 57.3838 19.58C57.3838 20.108 57.2398 20.606 56.9518 21.074C56.6758 21.554 56.2378 21.938 55.6378 22.226C55.0498 22.526 54.2938 22.676 53.3698 22.676C52.1218 22.676 51.1078 22.436 50.3278 21.956C49.5598 21.488 49.1758 20.774 49.1758 19.814C49.1758 19.442 49.2718 19.07 49.4638 18.698C49.6678 18.338 49.9858 17.996 50.4178 17.672C50.1658 17.564 49.9438 17.45 49.7518 17.33C49.5718 17.198 49.4098 17.066 49.2658 16.934V16.502L50.8138 14.918C50.1178 14.318 49.7698 13.532 49.7698 12.56C49.7698 11.972 49.9078 11.438 50.1838 10.958C50.4718 10.466 50.8858 10.076 51.4258 9.788C51.9658 9.5 52.6138 9.356 53.3698 9.356C53.8738 9.356 54.3418 9.428 54.7738 9.572H58.1038V10.832L56.5198 10.922C56.8078 11.414 56.9518 11.96 56.9518 12.56C56.9518 13.16 56.8078 13.7 56.5198 14.18C56.2438 14.66 55.8358 15.044 55.2958 15.332C54.7678 15.62 54.1258 15.764 53.3698 15.764ZM53.3698 14.27C53.9218 14.27 54.3658 14.126 54.7018 13.838C55.0498 13.538 55.2238 13.118 55.2238 12.578C55.2238 12.026 55.0498 11.606 54.7018 11.318C54.3658 11.03 53.9218 10.886 53.3698 10.886C52.8058 10.886 52.3498 11.03 52.0018 11.318C51.6658 11.606 51.4978 12.026 51.4978 12.578C51.4978 13.118 51.6658 13.538 52.0018 13.838C52.3498 14.126 52.8058 14.27 53.3698 14.27ZM50.9758 19.634C50.9758 20.15 51.2038 20.534 51.6598 20.786C52.1158 21.05 52.6858 21.182 53.3698 21.182C54.0298 21.182 54.5638 21.038 54.9718 20.75C55.3798 20.474 55.5838 20.102 55.5838 19.634C55.5838 19.286 55.4458 18.986 55.1698 18.734C54.8938 18.494 54.3718 18.344 53.6038 18.284C53.0278 18.248 52.5178 18.194 52.0738 18.122C51.6538 18.35 51.3658 18.596 51.2098 18.86C51.0538 19.124 50.9758 19.382 50.9758 19.634Z" fill="#4F9CF9"/>
<path d="M68.75 10L73.25 14L77.75 10" stroke="#4F9CF9" stroke-linecap="round" stroke-linejoin="round"/>
</svg>
