<svg width="99" height="24" viewBox="0 0 99 24" fill="none" xmlns="http://www.w3.org/2000/svg">
<path d="M2.028 18.5V5.9H6.438C7.422 5.9 8.238 6.068 8.886 6.404C9.534 6.728 10.014 7.178 10.326 7.754C10.65 8.318 10.812 8.96 10.812 9.68C10.812 10.364 10.656 10.994 10.344 11.57C10.044 12.134 9.57 12.584 8.922 12.92C8.274 13.256 7.446 13.424 6.438 13.424H3.936V18.5H2.028ZM3.936 11.858H6.348C7.248 11.858 7.89 11.666 8.274 11.282C8.67 10.886 8.868 10.352 8.868 9.68C8.868 8.984 8.67 8.444 8.274 8.06C7.89 7.664 7.248 7.466 6.348 7.466H3.936V11.858ZM12.6259 18.5V9.572H14.3359L14.4979 11.264C14.8099 10.676 15.2419 10.214 15.7939 9.878C16.3579 9.53 17.0359 9.356 17.8279 9.356V11.354H17.3059C16.7779 11.354 16.3039 11.444 15.8839 11.624C15.4759 11.792 15.1459 12.086 14.8939 12.506C14.6539 12.914 14.5339 13.484 14.5339 14.216V18.5H12.6259ZM23.3937 18.716C22.5417 18.716 21.7737 18.524 21.0897 18.14C20.4177 17.744 19.8837 17.198 19.4877 16.502C19.0917 15.794 18.8937 14.972 18.8937 14.036C18.8937 13.1 19.0917 12.284 19.4877 11.588C19.8957 10.88 20.4417 10.334 21.1257 9.95C21.8097 9.554 22.5717 9.356 23.4117 9.356C24.2637 9.356 25.0257 9.554 25.6977 9.95C26.3817 10.334 26.9217 10.88 27.3177 11.588C27.7257 12.284 27.9297 13.1 27.9297 14.036C27.9297 14.972 27.7257 15.794 27.3177 16.502C26.9217 17.198 26.3817 17.744 25.6977 18.14C25.0137 18.524 24.2457 18.716 23.3937 18.716ZM23.3937 17.078C23.8497 17.078 24.2697 16.964 24.6537 16.736C25.0497 16.508 25.3677 16.172 25.6077 15.728C25.8477 15.272 25.9677 14.708 25.9677 14.036C25.9677 13.364 25.8477 12.806 25.6077 12.362C25.3797 11.906 25.0677 11.564 24.6717 11.336C24.2877 11.108 23.8677 10.994 23.4117 10.994C22.9557 10.994 22.5297 11.108 22.1337 11.336C21.7497 11.564 21.4377 11.906 21.1977 12.362C20.9577 12.806 20.8377 13.364 20.8377 14.036C20.8377 14.708 20.9577 15.272 21.1977 15.728C21.4377 16.172 21.7497 16.508 22.1337 16.736C22.5177 16.964 22.9377 17.078 23.3937 17.078ZM34.0611 18.716C33.1971 18.716 32.4351 18.512 31.7751 18.104C31.1151 17.696 30.5991 17.138 30.2271 16.43C29.8551 15.722 29.6691 14.918 29.6691 14.018C29.6691 13.118 29.8551 12.32 30.2271 11.624C30.5991 10.916 31.1151 10.364 31.7751 9.968C32.4471 9.56 33.2151 9.356 34.0791 9.356C34.7871 9.356 35.4051 9.494 35.9331 9.77C36.4731 10.046 36.8931 10.436 37.1931 10.94V5.54H39.1011V18.5H37.3911L37.1931 17.114C36.9051 17.534 36.5091 17.906 36.0051 18.23C35.5011 18.554 34.8531 18.716 34.0611 18.716ZM34.4031 17.06C35.2191 17.06 35.8851 16.778 36.4011 16.214C36.9291 15.65 37.1931 14.924 37.1931 14.036C37.1931 13.136 36.9291 12.41 36.4011 11.858C35.8851 11.294 35.2191 11.012 34.4031 11.012C33.5871 11.012 32.9151 11.294 32.3871 11.858C31.8591 12.41 31.5951 13.136 31.5951 14.036C31.5951 14.624 31.7151 15.146 31.9551 15.602C32.1951 16.058 32.5251 16.418 32.9451 16.682C33.3771 16.934 33.8631 17.06 34.4031 17.06ZM44.8008 18.716C43.7208 18.716 42.8688 18.38 42.2448 17.708C41.6328 17.036 41.3268 16.034 41.3268 14.702V9.572H43.2348V14.504C43.2348 16.232 43.9428 17.096 45.3588 17.096C46.0668 17.096 46.6488 16.844 47.1048 16.34C47.5608 15.836 47.7888 15.116 47.7888 14.18V9.572H49.6968V18.5H48.0048L47.8608 16.934C47.5848 17.486 47.1768 17.924 46.6368 18.248C46.1088 18.56 45.4968 18.716 44.8008 18.716ZM56.354 18.716C55.478 18.716 54.692 18.518 53.996 18.122C53.312 17.726 52.772 17.18 52.376 16.484C51.992 15.776 51.8 14.96 51.8 14.036C51.8 13.112 51.992 12.302 52.376 11.606C52.772 10.898 53.312 10.346 53.996 9.95C54.692 9.554 55.478 9.356 56.354 9.356C57.458 9.356 58.382 9.644 59.126 10.22C59.882 10.796 60.368 11.576 60.584 12.56H58.586C58.466 12.068 58.202 11.684 57.794 11.408C57.386 11.132 56.906 10.994 56.354 10.994C55.886 10.994 55.454 11.114 55.058 11.354C54.662 11.582 54.344 11.924 54.104 12.38C53.864 12.824 53.744 13.376 53.744 14.036C53.744 14.696 53.864 15.254 54.104 15.71C54.344 16.154 54.662 16.496 55.058 16.736C55.454 16.976 55.886 17.096 56.354 17.096C56.906 17.096 57.386 16.958 57.794 16.682C58.202 16.406 58.466 16.016 58.586 15.512H60.584C60.38 16.472 59.9 17.246 59.144 17.834C58.388 18.422 57.458 18.716 56.354 18.716ZM66.2215 18.5C65.3455 18.5 64.6495 18.29 64.1335 17.87C63.6175 17.438 63.3595 16.676 63.3595 15.584V11.174H61.8295V9.572H63.3595L63.5935 7.304H65.2675V9.572H67.7875V11.174H65.2675V15.584C65.2675 16.076 65.3695 16.418 65.5735 16.61C65.7895 16.79 66.1555 16.88 66.6715 16.88H67.6975V18.5H66.2215ZM73.3188 18.716C72.1908 18.716 71.2608 18.44 70.5288 17.888C69.7968 17.336 69.3768 16.604 69.2688 15.692H71.1948C71.2908 16.1 71.5188 16.454 71.8788 16.754C72.2388 17.042 72.7128 17.186 73.3008 17.186C73.8768 17.186 74.2968 17.066 74.5608 16.826C74.8248 16.586 74.9568 16.31 74.9568 15.998C74.9568 15.542 74.7708 15.236 74.3988 15.08C74.0388 14.912 73.5348 14.762 72.8868 14.63C72.3828 14.522 71.8788 14.378 71.3748 14.198C70.8828 14.018 70.4688 13.766 70.1328 13.442C69.8088 13.106 69.6468 12.656 69.6468 12.092C69.6468 11.312 69.9468 10.664 70.5468 10.148C71.1468 9.62 71.9868 9.356 73.0668 9.356C74.0628 9.356 74.8668 9.596 75.4788 10.076C76.1028 10.556 76.4688 11.234 76.5768 12.11H74.7408C74.6808 11.726 74.5008 11.426 74.2008 11.21C73.9128 10.994 73.5228 10.886 73.0308 10.886C72.5508 10.886 72.1788 10.988 71.9148 11.192C71.6508 11.384 71.5188 11.636 71.5188 11.948C71.5188 12.26 71.6988 12.506 72.0588 12.686C72.4308 12.866 72.9168 13.028 73.5168 13.172C74.1168 13.304 74.6688 13.46 75.1728 13.64C75.6888 13.808 76.1028 14.06 76.4148 14.396C76.7268 14.732 76.8828 15.224 76.8828 15.872C76.8948 16.688 76.5768 17.366 75.9288 17.906C75.2928 18.446 74.4228 18.716 73.3188 18.716Z" fill="#4F9CF9"/>
<path d="M88.75 10L93.25 14L97.75 10" stroke="#4F9CF9" stroke-linecap="round" stroke-linejoin="round"/>
</svg>
