<svg width="110" height="24" viewBox="0 0 110 24" fill="none" xmlns="http://www.w3.org/2000/svg">
<path d="M2.028 18.5V5.9H6.366C7.362 5.9 8.178 6.068 8.814 6.404C9.462 6.74 9.942 7.196 10.254 7.772C10.566 8.336 10.722 8.966 10.722 9.662C10.722 10.442 10.512 11.15 10.092 11.786C9.684 12.422 9.042 12.878 8.166 13.154L10.848 18.5H8.634L6.186 13.424H3.936V18.5H2.028ZM3.936 11.984H6.258C7.122 11.984 7.752 11.774 8.148 11.354C8.556 10.934 8.76 10.388 8.76 9.716C8.76 9.044 8.562 8.51 8.166 8.114C7.77 7.706 7.128 7.502 6.24 7.502H3.936V11.984ZM16.5383 18.716C15.6623 18.716 14.8823 18.524 14.1983 18.14C13.5263 17.744 12.9983 17.198 12.6143 16.502C12.2303 15.806 12.0383 14.996 12.0383 14.072C12.0383 13.136 12.2243 12.314 12.5963 11.606C12.9803 10.898 13.5083 10.346 14.1803 9.95C14.8643 9.554 15.6563 9.356 16.5563 9.356C17.4323 9.356 18.1943 9.554 18.8423 9.95C19.4903 10.334 19.9943 10.85 20.3543 11.498C20.7143 12.146 20.8943 12.86 20.8943 13.64C20.8943 13.76 20.8883 13.892 20.8763 14.036C20.8763 14.168 20.8703 14.318 20.8583 14.486H13.9103C13.9703 15.35 14.2523 16.01 14.7563 16.466C15.2723 16.91 15.8663 17.132 16.5383 17.132C17.0783 17.132 17.5283 17.012 17.8883 16.772C18.2603 16.52 18.5363 16.184 18.7163 15.764H20.6243C20.3843 16.604 19.9043 17.306 19.1843 17.87C18.4763 18.434 17.5943 18.716 16.5383 18.716ZM16.5383 10.922C15.9023 10.922 15.3383 11.114 14.8463 11.498C14.3543 11.87 14.0543 12.434 13.9463 13.19H18.9863C18.9503 12.494 18.7043 11.942 18.2483 11.534C17.7923 11.126 17.2223 10.922 16.5383 10.922ZM26.438 18.716C25.31 18.716 24.38 18.44 23.648 17.888C22.916 17.336 22.496 16.604 22.388 15.692H24.314C24.41 16.1 24.638 16.454 24.998 16.754C25.358 17.042 25.832 17.186 26.42 17.186C26.996 17.186 27.416 17.066 27.68 16.826C27.944 16.586 28.076 16.31 28.076 15.998C28.076 15.542 27.89 15.236 27.518 15.08C27.158 14.912 26.654 14.762 26.006 14.63C25.502 14.522 24.998 14.378 24.494 14.198C24.002 14.018 23.588 13.766 23.252 13.442C22.928 13.106 22.766 12.656 22.766 12.092C22.766 11.312 23.066 10.664 23.666 10.148C24.266 9.62 25.106 9.356 26.186 9.356C27.182 9.356 27.986 9.596 28.598 10.076C29.222 10.556 29.588 11.234 29.696 12.11H27.86C27.8 11.726 27.62 11.426 27.32 11.21C27.032 10.994 26.642 10.886 26.15 10.886C25.67 10.886 25.298 10.988 25.034 11.192C24.77 11.384 24.638 11.636 24.638 11.948C24.638 12.26 24.818 12.506 25.178 12.686C25.55 12.866 26.036 13.028 26.636 13.172C27.236 13.304 27.788 13.46 28.292 13.64C28.808 13.808 29.222 14.06 29.534 14.396C29.846 14.732 30.002 15.224 30.002 15.872C30.014 16.688 29.696 17.366 29.048 17.906C28.412 18.446 27.542 18.716 26.438 18.716ZM36.2609 18.716C35.4089 18.716 34.6409 18.524 33.9569 18.14C33.2849 17.744 32.7509 17.198 32.3549 16.502C31.9589 15.794 31.7609 14.972 31.7609 14.036C31.7609 13.1 31.9589 12.284 32.3549 11.588C32.7629 10.88 33.3089 10.334 33.9929 9.95C34.6769 9.554 35.4389 9.356 36.2789 9.356C37.1309 9.356 37.8929 9.554 38.5649 9.95C39.2489 10.334 39.7889 10.88 40.1849 11.588C40.5929 12.284 40.7969 13.1 40.7969 14.036C40.7969 14.972 40.5929 15.794 40.1849 16.502C39.7889 17.198 39.2489 17.744 38.5649 18.14C37.8809 18.524 37.1129 18.716 36.2609 18.716ZM36.2609 17.078C36.7169 17.078 37.1369 16.964 37.5209 16.736C37.9169 16.508 38.2349 16.172 38.4749 15.728C38.7149 15.272 38.8349 14.708 38.8349 14.036C38.8349 13.364 38.7149 12.806 38.4749 12.362C38.2469 11.906 37.9349 11.564 37.5389 11.336C37.1549 11.108 36.7349 10.994 36.2789 10.994C35.8229 10.994 35.3969 11.108 35.0009 11.336C34.6169 11.564 34.3049 11.906 34.0649 12.362C33.8249 12.806 33.7049 13.364 33.7049 14.036C33.7049 14.708 33.8249 15.272 34.0649 15.728C34.3049 16.172 34.6169 16.508 35.0009 16.736C35.3849 16.964 35.8049 17.078 36.2609 17.078ZM46.1543 18.716C45.0743 18.716 44.2223 18.38 43.5983 17.708C42.9863 17.036 42.6803 16.034 42.6803 14.702V9.572H44.5883V14.504C44.5883 16.232 45.2963 17.096 46.7123 17.096C47.4203 17.096 48.0023 16.844 48.4583 16.34C48.9143 15.836 49.1423 15.116 49.1423 14.18V9.572H51.0503V18.5H49.3583L49.2143 16.934C48.9383 17.486 48.5303 17.924 47.9903 18.248C47.4623 18.56 46.8503 18.716 46.1543 18.716ZM53.4775 18.5V9.572H55.1875L55.3495 11.264C55.6615 10.676 56.0935 10.214 56.6455 9.878C57.2095 9.53 57.8875 9.356 58.6795 9.356V11.354H58.1575C57.6295 11.354 57.1555 11.444 56.7355 11.624C56.3275 11.792 55.9975 12.086 55.7455 12.506C55.5055 12.914 55.3855 13.484 55.3855 14.216V18.5H53.4775ZM64.2993 18.716C63.4233 18.716 62.6373 18.518 61.9413 18.122C61.2573 17.726 60.7173 17.18 60.3213 16.484C59.9373 15.776 59.7453 14.96 59.7453 14.036C59.7453 13.112 59.9373 12.302 60.3213 11.606C60.7173 10.898 61.2573 10.346 61.9413 9.95C62.6373 9.554 63.4233 9.356 64.2993 9.356C65.4033 9.356 66.3273 9.644 67.0713 10.22C67.8273 10.796 68.3133 11.576 68.5293 12.56H66.5313C66.4113 12.068 66.1473 11.684 65.7393 11.408C65.3313 11.132 64.8513 10.994 64.2993 10.994C63.8313 10.994 63.3993 11.114 63.0033 11.354C62.6073 11.582 62.2893 11.924 62.0493 12.38C61.8093 12.824 61.6893 13.376 61.6893 14.036C61.6893 14.696 61.8093 15.254 62.0493 15.71C62.2893 16.154 62.6073 16.496 63.0033 16.736C63.3993 16.976 63.8313 17.096 64.2993 17.096C64.8513 17.096 65.3313 16.958 65.7393 16.682C66.1473 16.406 66.4113 16.016 66.5313 15.512H68.5293C68.3253 16.472 67.8453 17.246 67.0893 17.834C66.3333 18.422 65.4033 18.716 64.2993 18.716ZM74.7746 18.716C73.8986 18.716 73.1186 18.524 72.4346 18.14C71.7626 17.744 71.2346 17.198 70.8506 16.502C70.4666 15.806 70.2746 14.996 70.2746 14.072C70.2746 13.136 70.4606 12.314 70.8326 11.606C71.2166 10.898 71.7446 10.346 72.4166 9.95C73.1006 9.554 73.8926 9.356 74.7926 9.356C75.6686 9.356 76.4306 9.554 77.0786 9.95C77.7266 10.334 78.2306 10.85 78.5906 11.498C78.9506 12.146 79.1306 12.86 79.1306 13.64C79.1306 13.76 79.1246 13.892 79.1126 14.036C79.1126 14.168 79.1066 14.318 79.0946 14.486H72.1466C72.2066 15.35 72.4886 16.01 72.9926 16.466C73.5086 16.91 74.1026 17.132 74.7746 17.132C75.3146 17.132 75.7646 17.012 76.1246 16.772C76.4966 16.52 76.7726 16.184 76.9526 15.764H78.8606C78.6206 16.604 78.1406 17.306 77.4206 17.87C76.7126 18.434 75.8306 18.716 74.7746 18.716ZM74.7746 10.922C74.1386 10.922 73.5746 11.114 73.0826 11.498C72.5906 11.87 72.2906 12.434 72.1826 13.19H77.2226C77.1866 12.494 76.9406 11.942 76.4846 11.534C76.0286 11.126 75.4586 10.922 74.7746 10.922ZM84.6743 18.716C83.5463 18.716 82.6163 18.44 81.8843 17.888C81.1523 17.336 80.7323 16.604 80.6243 15.692H82.5503C82.6463 16.1 82.8743 16.454 83.2343 16.754C83.5943 17.042 84.0683 17.186 84.6563 17.186C85.2323 17.186 85.6523 17.066 85.9163 16.826C86.1803 16.586 86.3123 16.31 86.3123 15.998C86.3123 15.542 86.1263 15.236 85.7543 15.08C85.3943 14.912 84.8903 14.762 84.2423 14.63C83.7383 14.522 83.2343 14.378 82.7303 14.198C82.2383 14.018 81.8243 13.766 81.4883 13.442C81.1643 13.106 81.0023 12.656 81.0023 12.092C81.0023 11.312 81.3023 10.664 81.9023 10.148C82.5023 9.62 83.3423 9.356 84.4223 9.356C85.4183 9.356 86.2223 9.596 86.8343 10.076C87.4583 10.556 87.8243 11.234 87.9323 12.11H86.0963C86.0363 11.726 85.8563 11.426 85.5563 11.21C85.2683 10.994 84.8783 10.886 84.3863 10.886C83.9063 10.886 83.5343 10.988 83.2703 11.192C83.0063 11.384 82.8743 11.636 82.8743 11.948C82.8743 12.26 83.0543 12.506 83.4143 12.686C83.7863 12.866 84.2723 13.028 84.8723 13.172C85.4723 13.304 86.0243 13.46 86.5283 13.64C87.0443 13.808 87.4583 14.06 87.7703 14.396C88.0823 14.732 88.2383 15.224 88.2383 15.872C88.2503 16.688 87.9323 17.366 87.2843 17.906C86.6483 18.446 85.7783 18.716 84.6743 18.716Z" fill="#4F9CF9"/>
<path d="M99.75 10L104.25 14L108.75 10" stroke="#4F9CF9" stroke-linecap="round" stroke-linejoin="round"/>
</svg>
