<svg width="100" height="24" viewBox="0 0 100 24" fill="none" xmlns="http://www.w3.org/2000/svg">
<path d="M6.186 18.716C5.262 18.716 4.452 18.554 3.756 18.23C3.06 17.906 2.514 17.444 2.118 16.844C1.734 16.244 1.536 15.53 1.524 14.702H3.54C3.552 15.374 3.786 15.944 4.242 16.412C4.698 16.88 5.34 17.114 6.168 17.114C6.9 17.114 7.47 16.94 7.878 16.592C8.298 16.232 8.508 15.776 8.508 15.224C8.508 14.78 8.406 14.42 8.202 14.144C8.01 13.868 7.74 13.64 7.392 13.46C7.056 13.28 6.666 13.118 6.222 12.974C5.778 12.83 5.31 12.674 4.818 12.506C3.846 12.182 3.114 11.762 2.622 11.246C2.142 10.73 1.902 10.052 1.902 9.212C1.89 8.504 2.052 7.886 2.388 7.358C2.736 6.83 3.216 6.422 3.828 6.134C4.452 5.834 5.178 5.684 6.006 5.684C6.822 5.684 7.536 5.834 8.148 6.134C8.772 6.434 9.258 6.854 9.606 7.394C9.954 7.922 10.134 8.54 10.146 9.248H8.13C8.13 8.924 8.046 8.618 7.878 8.33C7.71 8.03 7.464 7.784 7.14 7.592C6.816 7.4 6.42 7.304 5.952 7.304C5.352 7.292 4.854 7.442 4.458 7.754C4.074 8.066 3.882 8.498 3.882 9.05C3.882 9.542 4.026 9.92 4.314 10.184C4.602 10.448 4.998 10.67 5.502 10.85C6.006 11.018 6.582 11.216 7.23 11.444C7.854 11.648 8.412 11.894 8.904 12.182C9.396 12.47 9.786 12.848 10.074 13.316C10.374 13.784 10.524 14.378 10.524 15.098C10.524 15.734 10.362 16.328 10.038 16.88C9.714 17.42 9.228 17.864 8.58 18.212C7.932 18.548 7.134 18.716 6.186 18.716ZM16.714 18.716C15.862 18.716 15.094 18.524 14.41 18.14C13.738 17.744 13.204 17.198 12.808 16.502C12.412 15.794 12.214 14.972 12.214 14.036C12.214 13.1 12.412 12.284 12.808 11.588C13.216 10.88 13.762 10.334 14.446 9.95C15.13 9.554 15.892 9.356 16.732 9.356C17.584 9.356 18.346 9.554 19.018 9.95C19.702 10.334 20.242 10.88 20.638 11.588C21.046 12.284 21.25 13.1 21.25 14.036C21.25 14.972 21.046 15.794 20.638 16.502C20.242 17.198 19.702 17.744 19.018 18.14C18.334 18.524 17.566 18.716 16.714 18.716ZM16.714 17.078C17.17 17.078 17.59 16.964 17.974 16.736C18.37 16.508 18.688 16.172 18.928 15.728C19.168 15.272 19.288 14.708 19.288 14.036C19.288 13.364 19.168 12.806 18.928 12.362C18.7 11.906 18.388 11.564 17.992 11.336C17.608 11.108 17.188 10.994 16.732 10.994C16.276 10.994 15.85 11.108 15.454 11.336C15.07 11.564 14.758 11.906 14.518 12.362C14.278 12.806 14.158 13.364 14.158 14.036C14.158 14.708 14.278 15.272 14.518 15.728C14.758 16.172 15.07 16.508 15.454 16.736C15.838 16.964 16.258 17.078 16.714 17.078ZM23.3134 18.5V5.54H25.2214V18.5H23.3134ZM30.9316 18.716C29.8516 18.716 28.9996 18.38 28.3756 17.708C27.7636 17.036 27.4576 16.034 27.4576 14.702V9.572H29.3656V14.504C29.3656 16.232 30.0736 17.096 31.4896 17.096C32.1976 17.096 32.7796 16.844 33.2356 16.34C33.6916 15.836 33.9196 15.116 33.9196 14.18V9.572H35.8276V18.5H34.1356L33.9916 16.934C33.7156 17.486 33.3076 17.924 32.7676 18.248C32.2396 18.56 31.6276 18.716 30.9316 18.716ZM41.9988 18.5C41.1228 18.5 40.4268 18.29 39.9108 17.87C39.3948 17.438 39.1368 16.676 39.1368 15.584V11.174H37.6068V9.572H39.1368L39.3708 7.304H41.0448V9.572H43.5648V11.174H41.0448V15.584C41.0448 16.076 41.1468 16.418 41.3508 16.61C41.5668 16.79 41.9328 16.88 42.4488 16.88H43.4748V18.5H41.9988ZM46.6122 7.88C46.2522 7.88 45.9522 7.772 45.7122 7.556C45.4842 7.328 45.3702 7.046 45.3702 6.71C45.3702 6.374 45.4842 6.098 45.7122 5.882C45.9522 5.654 46.2522 5.54 46.6122 5.54C46.9722 5.54 47.2662 5.654 47.4942 5.882C47.7342 6.098 47.8542 6.374 47.8542 6.71C47.8542 7.046 47.7342 7.328 47.4942 7.556C47.2662 7.772 46.9722 7.88 46.6122 7.88ZM45.6582 18.5V9.572H47.5662V18.5H45.6582ZM54.2609 18.716C53.4089 18.716 52.6409 18.524 51.9569 18.14C51.2849 17.744 50.7509 17.198 50.3549 16.502C49.9589 15.794 49.7609 14.972 49.7609 14.036C49.7609 13.1 49.9589 12.284 50.3549 11.588C50.7629 10.88 51.3089 10.334 51.9929 9.95C52.6769 9.554 53.4389 9.356 54.2789 9.356C55.1309 9.356 55.8929 9.554 56.5649 9.95C57.2489 10.334 57.7889 10.88 58.1849 11.588C58.5929 12.284 58.7969 13.1 58.7969 14.036C58.7969 14.972 58.5929 15.794 58.1849 16.502C57.7889 17.198 57.2489 17.744 56.5649 18.14C55.8809 18.524 55.1129 18.716 54.2609 18.716ZM54.2609 17.078C54.7169 17.078 55.1369 16.964 55.5209 16.736C55.9169 16.508 56.2349 16.172 56.4749 15.728C56.7149 15.272 56.8349 14.708 56.8349 14.036C56.8349 13.364 56.7149 12.806 56.4749 12.362C56.2469 11.906 55.9349 11.564 55.5389 11.336C55.1549 11.108 54.7349 10.994 54.2789 10.994C53.8229 10.994 53.3969 11.108 53.0009 11.336C52.6169 11.564 52.3049 11.906 52.0649 12.362C51.8249 12.806 51.7049 13.364 51.7049 14.036C51.7049 14.708 51.8249 15.272 52.0649 15.728C52.3049 16.172 52.6169 16.508 53.0009 16.736C53.3849 16.964 53.8049 17.078 54.2609 17.078ZM60.8603 18.5V9.572H62.5523L62.6963 11.138C62.9723 10.586 63.3743 10.154 63.9023 9.842C64.4423 9.518 65.0603 9.356 65.7563 9.356C66.8363 9.356 67.6823 9.692 68.2943 10.364C68.9183 11.036 69.2303 12.038 69.2303 13.37V18.5H67.3403V13.568C67.3403 11.84 66.6323 10.976 65.2163 10.976C64.5083 10.976 63.9203 11.228 63.4523 11.732C62.9963 12.236 62.7683 12.956 62.7683 13.892V18.5H60.8603ZM75.0415 18.716C73.9135 18.716 72.9835 18.44 72.2515 17.888C71.5195 17.336 71.0995 16.604 70.9915 15.692H72.9175C73.0135 16.1 73.2415 16.454 73.6015 16.754C73.9615 17.042 74.4355 17.186 75.0235 17.186C75.5995 17.186 76.0195 17.066 76.2835 16.826C76.5475 16.586 76.6795 16.31 76.6795 15.998C76.6795 15.542 76.4935 15.236 76.1215 15.08C75.7615 14.912 75.2575 14.762 74.6095 14.63C74.1055 14.522 73.6015 14.378 73.0975 14.198C72.6055 14.018 72.1915 13.766 71.8555 13.442C71.5315 13.106 71.3695 12.656 71.3695 12.092C71.3695 11.312 71.6695 10.664 72.2695 10.148C72.8695 9.62 73.7095 9.356 74.7895 9.356C75.7855 9.356 76.5895 9.596 77.2015 10.076C77.8255 10.556 78.1915 11.234 78.2995 12.11H76.4635C76.4035 11.726 76.2235 11.426 75.9235 11.21C75.6355 10.994 75.2455 10.886 74.7535 10.886C74.2735 10.886 73.9015 10.988 73.6375 11.192C73.3735 11.384 73.2415 11.636 73.2415 11.948C73.2415 12.26 73.4215 12.506 73.7815 12.686C74.1535 12.866 74.6395 13.028 75.2395 13.172C75.8395 13.304 76.3915 13.46 76.8955 13.64C77.4115 13.808 77.8255 14.06 78.1375 14.396C78.4495 14.732 78.6055 15.224 78.6055 15.872C78.6175 16.688 78.2995 17.366 77.6515 17.906C77.0155 18.446 76.1455 18.716 75.0415 18.716Z" fill="#4F9CF9"/>
<path d="M89.75 10L94.25 14L98.75 10" stroke="#4F9CF9" stroke-linecap="round" stroke-linejoin="round"/>
</svg>
