<svg width="45" height="44" viewBox="0 0 45 44" fill="none" xmlns="http://www.w3.org/2000/svg">
<g clip-path="url(#clip0_5_36944)">
<path d="M9.01294 32.8811V29.3735L14.9369 32.8031L22.2639 25.9438V41.5331L9.01294 32.8811Z" fill="#0093EB"/>
<path d="M1.92139 23.6061L9.63814 16.5909L22.2654 24.3856L14.9385 31.2449L1.92139 23.6061Z" fill="#0093EB"/>
<path d="M9.63667 16.5905L0.438965 9.5753L13.6899 2.56018L23.0434 8.79582L9.63667 16.5905Z" fill="#0093EB"/>
<path d="M35.5141 32.9592L22.2632 41.5332V25.944L29.824 32.4915L35.5141 28.9059V32.9592Z" fill="#0093EB"/>
<path d="M29.824 30.9324L22.2632 24.3849L34.9685 16.2784L42.6072 22.826L29.824 30.9324Z" fill="#0093EB"/>
<path d="M34.9683 16.2787L23.0425 8.79582L32.396 2.56018L44.088 9.5753L34.9683 16.2787Z" fill="#0093EB"/>
</g>
<defs>
<clipPath id="clip0_5_36944">
<rect width="43.65" height="43.65" fill="white" transform="translate(0.438965 0.221924)"/>
</clipPath>
</defs>
</svg>
