<svg width="44" height="44" viewBox="0 0 44 44" fill="none" xmlns="http://www.w3.org/2000/svg">
<g clip-path="url(#clip0_5_36954)">
<path d="M39.9385 13.0196H4.13184C3.425 13.0196 2.85303 12.4477 2.85303 11.7408V3.89746C2.85303 1.78197 4.57396 0.0610352 6.68945 0.0610352H37.3809C39.4963 0.0610352 41.2173 1.78197 41.2173 3.89746V11.7408C41.2173 12.4477 40.6453 13.0196 39.9385 13.0196Z" fill="#E3E7EA"/>
<path d="M37.3804 0.0610352H22.0347V13.0196H39.938C40.6448 13.0196 41.2168 12.4477 41.2168 11.7408V3.89746C41.2168 1.78197 39.4959 0.0610352 37.3804 0.0610352Z" fill="#BABAC0"/>
<path d="M2.80396 27.0864C2.80439 27.0845 2.80456 27.0836 2.80456 27.0836L0.260409 14.9634C0.0813761 13.8125 0.38829 12.6615 1.10451 11.8175C1.84613 10.948 2.92025 10.462 4.0456 10.462H39.9546C41.08 10.462 42.1542 10.948 42.8958 11.8175C43.612 12.6616 43.9189 13.8125 43.7399 14.9123L41.1958 27.0896L43.7399 39.2097C43.9189 40.3606 43.612 41.5116 42.8958 42.3554C42.1542 43.2251 41.0801 43.7111 39.9547 43.7111H4.0456C2.92025 43.7111 1.84605 43.2251 1.10442 42.3554C0.38829 41.5115 0.0813761 40.3606 0.260409 39.2608C0.260409 39.2608 2.7598 27.2976 2.80396 27.0864Z" fill="#4086F4"/>
<path d="M2.80456 27.0836C2.80456 27.0836 2.80439 27.0845 2.80396 27.0864H41.1964L43.7399 14.9123C43.9189 13.8125 43.612 12.6616 42.8958 11.8175C42.1542 10.948 41.0801 10.462 39.9547 10.462H4.0456C2.92025 10.462 1.84605 10.948 1.10442 11.8175C0.38829 12.6616 0.0813761 13.8125 0.260409 14.9634L2.80456 27.0836Z" fill="#4175DF"/>
<path d="M9.21191 7.73389C9.91818 7.73389 10.4907 7.16134 10.4907 6.45508C10.4907 5.74881 9.91818 5.17627 9.21191 5.17627C8.50565 5.17627 7.93311 5.74881 7.93311 6.45508C7.93311 7.16134 8.50565 7.73389 9.21191 7.73389Z" fill="#FFF5F5"/>
<path d="M34.7883 7.73389C35.4946 7.73389 36.0671 7.16134 36.0671 6.45508C36.0671 5.74881 35.4946 5.17627 34.7883 5.17627C34.0821 5.17627 33.5095 5.74881 33.5095 6.45508C33.5095 7.16134 34.0821 7.73389 34.7883 7.73389Z" fill="#E3E7EA"/>
<path d="M16.8847 36.0381C14.7217 36.0381 12.7823 34.6681 12.0617 32.6275C11.8256 31.9618 12.1741 31.2313 12.841 30.9965C13.5041 30.7593 14.2372 31.1102 14.472 31.7758C14.8329 32.7949 15.8032 33.4805 16.8847 33.4805C18.2946 33.4805 19.4423 32.3328 19.4423 30.9229C19.4423 29.5129 18.2946 28.3652 16.8847 28.3652H15.295C14.5894 28.3652 14.0161 27.7933 14.0161 27.0864C14.0161 26.3796 14.5894 25.8076 15.295 25.8076H16.8847C18.2946 25.8076 19.4423 24.6599 19.4423 23.25C19.4423 21.8401 18.2946 20.6924 16.8847 20.6924C15.8032 20.6924 14.8329 21.378 14.4719 22.397C14.2371 23.0639 13.5028 23.4136 12.8409 23.1763C12.1741 22.9416 11.8256 22.211 12.0616 21.5453C12.7823 19.5047 14.7217 18.1348 16.8847 18.1348C19.7058 18.1348 21.9999 20.4289 21.9999 23.25C21.9999 24.776 21.328 26.1485 20.2641 27.0864C21.328 28.0243 21.9999 29.3968 21.9999 30.9229C21.9999 33.744 19.7058 36.0381 16.8847 36.0381Z" fill="#FFF5F5"/>
<path d="M12.8409 23.1763C13.5028 23.4136 14.2371 23.064 14.4719 22.397C14.8328 21.378 15.8032 20.6924 16.8846 20.6924C18.2946 20.6924 19.4423 21.8401 19.4423 23.25C19.4423 24.6599 18.2946 25.8076 16.8846 25.8076H15.2949C14.5894 25.8076 14.0162 26.3795 14.0161 27.0863H20.2642C21.3281 26.1484 21.9999 24.776 21.9999 23.25C21.9999 20.4289 19.7058 18.1348 16.8846 18.1348C14.7217 18.1348 12.7822 19.5047 12.0617 21.5453C11.8256 22.211 12.174 22.9415 12.8409 23.1763Z" fill="#E3E7EA"/>
<path d="M29.6738 36.0379C28.967 36.0379 28.395 35.466 28.395 34.7591V21.8024L26.5467 23.035C25.9573 23.4246 25.1642 23.2673 24.7733 22.6803C24.3812 22.0922 24.5398 21.2992 25.128 20.907L28.9644 18.3494C29.3566 18.0883 29.8623 18.0634 30.277 18.2857C30.6929 18.508 30.9526 18.9414 30.9526 19.4134V34.7591C30.9526 35.466 30.3807 36.0379 29.6738 36.0379Z" fill="#FFF5F5"/>
<path d="M26.5467 23.0355L28.395 21.8029V27.0865H30.9526V19.4139C30.9526 18.9418 30.6929 18.5085 30.277 18.2861C29.8624 18.0639 29.3566 18.0889 28.9644 18.3498L25.128 20.9074C24.5398 21.2996 24.3812 22.0926 24.7733 22.6808C25.1643 23.2678 25.9573 23.4252 26.5467 23.0355Z" fill="#E3E7EA"/>
</g>
<defs>
<clipPath id="clip0_5_36954">
<rect width="43.65" height="43.65" fill="white" transform="translate(0.175049 0.0610352)"/>
</clipPath>
</defs>
</svg>
