<svg width="45" height="44" viewBox="0 0 45 44" fill="none" xmlns="http://www.w3.org/2000/svg">
<g clip-path="url(#clip0_5_36934)">
<path d="M22.5863 13.961L13.5271 29.6741H13.5015L18.7477 36.0719L6.97575 41.0111C6.74534 40.8831 6.5662 40.704 6.46392 40.5248L0.9361 30.2883C0.654595 29.7252 0.885003 29.2902 0.961691 29.0343L15.7792 3.44295C15.8815 3.2894 16.035 3.13585 16.2398 3.00781H16.2654L23.866 5.3623L22.5863 13.961Z" fill="#59C36A"/>
<path d="M44.4495 29.6741L34.1874 36.072L31.7562 29.6741L22.586 13.961L16.2649 3.00775C16.4439 2.87979 16.6743 2.8031 16.8791 2.8031H28.3781C28.6341 2.87979 29.1459 2.8542 29.4785 3.44288L44.296 29.0343C44.3982 29.2135 44.4495 29.4437 44.4495 29.6741Z" fill="#FFDA2D"/>
<path d="M29.4797 3.44386C29.1472 2.85517 28.6353 2.88077 28.3793 2.80408H22.5872V13.9619L31.7574 29.675L34.1886 36.0729L44.4507 29.675C44.4507 29.4446 44.3994 29.2144 44.2972 29.0352L29.4797 3.44386Z" fill="#FDBF00"/>
<path d="M44.4499 29.6743C44.4499 29.9046 44.3986 30.135 44.3219 30.2885L38.7941 40.5251C38.5893 40.8577 38.1032 41.1904 37.6681 41.1904H7.58978C7.38496 41.1904 7.15464 41.1136 6.97559 41.0113L13.5014 29.6743H44.4499Z" fill="#4086F4"/>
<path d="M22.5872 41.1903H37.669C38.1041 41.1903 38.5903 40.8576 38.795 40.5249L44.3228 30.2884C44.3995 30.1348 44.4508 29.9044 44.4508 29.6742H22.5872V41.1903H22.5872Z" fill="#4175DF"/>
</g>
<defs>
<clipPath id="clip0_5_36934">
<rect width="43.65" height="43.65" fill="white" transform="translate(0.800049 0.171631)"/>
</clipPath>
</defs>
</svg>
