<svg width="51" height="40" viewBox="0 0 51 40" fill="none" xmlns="http://www.w3.org/2000/svg">
<path d="M0 3.31366V12.3952C0 15.1612 3.45437 16.6364 5.56538 14.7002L15.6406 5.61863C17.8476 3.63636 16.4083 0.132812 13.3857 0.132812H3.31044C1.4873 0.132812 0 1.56189 0 3.31366Z" fill="#5986EF"/>
<path d="M47.6895 0.132812H37.6143C34.6397 0.132812 33.1523 3.63636 35.3593 5.61863L45.4346 14.7002C47.5456 16.5903 51 15.1612 51 12.3952V3.31366C51 1.56189 49.5127 0.132812 47.6895 0.132812Z" fill="#5986EF"/>
<path d="M27.7789 22.3065L45.4346 38.2569C47.5456 40.147 51 38.7179 51 35.9519V26.7782C51 25.9023 50.6162 25.0725 49.9445 24.4732L27.7789 4.42003C26.4835 3.26754 24.5165 3.26754 23.2211 4.42003L1.0555 24.4732C0.383819 25.0725 0 25.9023 0 26.7782V35.9519C0 38.7179 3.45437 40.1931 5.56538 38.2569L23.2211 22.3065C24.5165 21.1541 26.4835 21.1541 27.7789 22.3065Z" fill="#5986EF"/>
</svg>
