<svg width="104" height="21" viewBox="0 0 104 21" fill="none" xmlns="http://www.w3.org/2000/svg">
<path d="M9.48901 1.43018C9.14844 1.43018 8.80811 1.44848 8.46948 1.48498C8.1591 1.51669 7.85253 1.56868 7.55008 1.63177C7.49155 1.64401 7.43298 1.65693 7.37445 1.67045C5.59245 2.07617 3.96529 2.98728 2.68809 4.29452C2.56932 4.41626 2.45305 4.54161 2.33935 4.67052C-1.11075 8.63136 -0.696703 14.6391 3.26417 18.0892C7.05619 21.3922 12.7641 21.1725 16.291 17.5877C16.41 17.4659 16.5262 17.3406 16.6397 17.2117C18.1623 15.4777 19.0013 13.2486 19 10.9411C19 5.68831 14.7418 1.43014 9.48901 1.43018ZM3.11069 4.77007C3.16078 4.71807 3.21277 4.6683 3.26382 4.61789C3.32278 4.55988 3.38143 4.50154 3.44167 4.44543C3.49461 4.39597 3.54914 4.34841 3.60336 4.30023C3.66454 4.24601 3.72541 4.1918 3.78819 4.13949C3.84335 4.09289 3.9001 4.04819 3.95653 4.00317C4.01994 3.95244 4.08334 3.90172 4.14865 3.85289C4.20635 3.80946 4.265 3.7673 4.32397 3.72608C4.3896 3.67916 4.45554 3.63097 4.52243 3.58722C4.58235 3.54664 4.6429 3.50733 4.70377 3.46833C4.77162 3.4249 4.83978 3.3821 4.90858 3.34152C4.97052 3.30455 5.03285 3.26817 5.09562 3.23246C5.16581 3.19252 5.23627 3.15352 5.30709 3.11548C5.37049 3.08167 5.4339 3.04858 5.4973 3.01625C5.56959 2.97979 5.6425 2.9446 5.71574 2.91004C5.77915 2.87992 5.84509 2.84981 5.9104 2.82127C5.9849 2.78957 6.06035 2.75787 6.13581 2.72616C6.20143 2.69921 6.26674 2.6729 6.333 2.64754C6.40972 2.61837 6.48739 2.59111 6.56507 2.56384C6.63133 2.5407 6.69759 2.51756 6.7648 2.49568C6.84374 2.47032 6.92331 2.44686 7.0032 2.42371C7.0701 2.40438 7.13636 2.3844 7.20357 2.36633C7.22925 2.35967 7.25493 2.35428 7.28061 2.34763C6.34219 3.25882 5.64579 4.38967 5.25446 5.63778C4.50198 5.43932 3.77352 5.15899 3.08216 4.80177C3.09262 4.79067 3.1015 4.77958 3.11069 4.77007ZM2.6548 5.28049C3.41635 5.69311 4.22391 6.0145 5.06075 6.23793C4.65051 7.66441 4.43517 9.13984 4.42066 10.6241H0.619454C0.688528 8.66683 1.40427 6.7877 2.6548 5.28049ZM2.6548 16.6017C1.40435 15.0944 0.688607 13.2153 0.619454 11.2581H4.42066C4.43517 12.7423 4.65047 14.2178 5.06075 15.6443C4.22395 15.8678 3.41639 16.1891 2.6548 16.6017ZM7.20167 19.5171C7.13763 19.501 7.07137 19.48 7.00542 19.4607C6.92521 19.4372 6.84469 19.4138 6.76543 19.3881C6.69854 19.3665 6.6326 19.3434 6.56665 19.3202C6.48866 19.2933 6.41067 19.2657 6.33363 19.2362C6.26769 19.2112 6.2027 19.1849 6.13739 19.1582C6.06162 19.1265 5.98585 19.0948 5.91071 19.0631C5.84604 19.0346 5.78168 19.0052 5.71764 18.975C5.64377 18.9401 5.57022 18.9046 5.49572 18.8678C5.43231 18.8361 5.36891 18.8044 5.3055 18.7699C5.23385 18.7315 5.16284 18.6922 5.09182 18.6516C5.02841 18.6164 4.96818 18.5803 4.90699 18.5435C4.83724 18.5017 4.76877 18.4586 4.70029 18.4145C4.64005 18.3761 4.57981 18.3371 4.52053 18.2972C4.453 18.2515 4.38611 18.204 4.31985 18.1564C4.26183 18.1149 4.20381 18.0734 4.14675 18.0296C4.08112 17.9802 4.01677 17.9291 3.95273 17.8778C3.89661 17.833 3.84081 17.7887 3.78597 17.7427C3.72256 17.6901 3.66137 17.6352 3.59987 17.5807C3.54597 17.5328 3.49176 17.4856 3.43913 17.4368C3.37858 17.3803 3.31993 17.3217 3.26096 17.2637C3.20992 17.2133 3.15793 17.1635 3.10784 17.1118C3.09864 17.102 3.08977 17.0918 3.08057 17.0823C3.7719 16.7249 4.50036 16.4445 5.25287 16.246C5.64429 17.4941 6.34065 18.6249 7.27902 19.5361C7.25334 19.5295 7.22735 19.5241 7.20167 19.5171ZM9.17202 19.7929C7.81544 19.6002 6.62625 18.1843 5.87806 16.0935C6.95977 15.8513 8.06364 15.7213 9.17202 15.7058V19.7929ZM9.17202 15.0717C7.99623 15.0872 6.82539 15.2268 5.67896 15.4883C5.28089 14.1129 5.0709 12.6899 5.05473 11.2581H9.17202V15.0717ZM9.17202 10.6241H5.05473C5.07086 9.19231 5.28085 7.76931 5.67896 6.3939C6.82539 6.65534 7.99627 6.79499 9.17202 6.81048V10.6241ZM9.17202 6.17642C8.0636 6.16097 6.95977 6.03102 5.87806 5.78869C6.62625 3.69787 7.81544 2.282 9.17202 2.08925V6.17642ZM16.3233 5.28049C17.5738 6.78774 18.2895 8.66686 18.3586 10.6241H14.5574C14.5429 9.13984 14.3276 7.66441 13.9174 6.23793C14.7542 6.01438 15.5617 5.69303 16.3233 5.28049ZM11.7739 2.36475C11.8405 2.38123 11.9067 2.40216 11.9727 2.4215C12.0529 2.44496 12.1334 2.46842 12.2127 2.4941C12.2796 2.51565 12.3455 2.5388 12.4114 2.56194C12.4894 2.58889 12.5674 2.61647 12.6445 2.64595C12.7104 2.671 12.7754 2.69731 12.8407 2.72394C12.9165 2.75565 12.9923 2.78735 13.0674 2.81905C13.1321 2.84759 13.1964 2.87695 13.2605 2.90719C13.3343 2.94206 13.4079 2.97757 13.4824 3.01434C13.5458 3.04605 13.6092 3.07775 13.6726 3.11231C13.7443 3.15067 13.8153 3.18998 13.8863 3.23056C13.9497 3.26575 14.0099 3.30189 14.0711 3.33867C14.1409 3.38052 14.2093 3.42363 14.2778 3.4677C14.3381 3.50606 14.3983 3.54506 14.4576 3.585C14.5251 3.63065 14.5917 3.67789 14.6579 3.72545C14.7163 3.76698 14.7743 3.80883 14.8317 3.85226C14.897 3.9014 14.961 3.95244 15.0254 4.0038C15.0812 4.04819 15.1373 4.09257 15.1921 4.13886C15.2555 4.19148 15.3167 4.24633 15.3782 4.30086C15.4321 4.34873 15.4863 4.39597 15.539 4.44479C15.5995 4.50122 15.6582 4.55988 15.7171 4.61789C15.7682 4.6683 15.8202 4.71807 15.8703 4.76975C15.8795 4.77958 15.8883 4.78972 15.8975 4.79923C15.2062 5.15661 14.4777 5.43706 13.7252 5.63556C13.3331 4.38733 12.6358 3.2566 11.6965 2.34572C11.7222 2.35238 11.7482 2.35777 11.7739 2.36475ZM9.80608 2.08925C11.1627 2.282 12.3518 3.69787 13.1 5.78869C12.0183 6.0309 10.9145 6.16085 9.80608 6.17642V2.08925ZM9.80608 6.81048C10.9819 6.79503 12.1527 6.65538 13.2991 6.3939C13.6972 7.76931 13.9072 9.19231 13.9234 10.6241H9.80608V6.81048ZM9.80608 11.2581H13.9234C13.9072 12.6899 13.6973 14.1129 13.2991 15.4883C12.1527 15.2269 10.9819 15.0872 9.80608 15.0717V11.2581ZM9.80608 19.7929V15.7058C10.9145 15.7212 12.0183 15.8512 13.1 16.0935C12.3518 18.1843 11.1627 19.6002 9.80608 19.7929ZM15.8674 17.1121C15.8173 17.1638 15.7656 17.2136 15.7146 17.264C15.6556 17.322 15.5967 17.3806 15.5361 17.4371C15.4835 17.4862 15.4293 17.5322 15.3754 17.5813C15.3139 17.6359 15.2527 17.6904 15.1899 17.743C15.1344 17.7893 15.078 17.834 15.0216 17.879C14.9582 17.9297 14.8948 17.9805 14.8295 18.0293C14.7718 18.0727 14.7131 18.1149 14.6541 18.1561C14.5885 18.203 14.5226 18.2512 14.4557 18.295C14.3958 18.3355 14.3352 18.3749 14.2743 18.4135C14.2065 18.4573 14.1381 18.4996 14.0692 18.5403C14.0058 18.5774 13.9452 18.6136 13.8828 18.6494C13.8126 18.6894 13.742 18.7283 13.671 18.7664C13.6076 18.8002 13.5442 18.8333 13.4808 18.8656C13.4085 18.9021 13.3356 18.9373 13.2624 18.9718C13.199 19.0019 13.133 19.0321 13.0677 19.0606C12.9932 19.0923 12.9177 19.124 12.8423 19.1557C12.7767 19.1823 12.7114 19.209 12.6454 19.234C12.5681 19.2635 12.4904 19.2911 12.4124 19.318C12.3465 19.3412 12.2805 19.3643 12.2136 19.3859C12.1344 19.4116 12.0551 19.435 11.9743 19.4582C11.908 19.4778 11.8414 19.4975 11.7745 19.5155C11.7489 19.5222 11.7232 19.5276 11.6975 19.5342C12.6359 18.6231 13.3323 17.4922 13.7236 16.2441C14.4761 16.4425 15.2046 16.7229 15.8959 17.0801C15.8855 17.0915 15.8766 17.1026 15.8674 17.1121ZM16.3233 16.6017C15.5618 16.1891 14.7542 15.8677 13.9174 15.6443C14.3276 14.2178 14.5429 12.7423 14.5574 11.2581H18.3586C18.2896 13.2153 17.5738 15.0945 16.3233 16.6017Z" fill="white"/>
<path d="M26.4091 16.9292V5.29284H33.4318V6.54284H27.8182V10.4747H33.0682V11.7247H27.8182V15.6792H33.5227V16.9292H26.4091ZM36.8107 11.6792V16.9292H35.4698V8.20193H36.7652V9.56556H36.8789C37.0834 9.12238 37.394 8.76632 37.8107 8.49738C38.2273 8.22465 38.7652 8.08829 39.4243 8.08829C40.0152 8.08829 40.5323 8.2095 40.9755 8.45193C41.4186 8.69056 41.7633 9.0542 42.0095 9.54284C42.2558 10.0277 42.3789 10.6413 42.3789 11.3837V16.9292H41.038V11.4747C41.038 10.789 40.8599 10.255 40.5039 9.87238C40.1478 9.48602 39.6592 9.29284 39.038 9.29284C38.6099 9.29284 38.2273 9.38564 37.8902 9.57124C37.5569 9.75685 37.2936 10.0277 37.1005 10.3837C36.9073 10.7398 36.8107 11.1716 36.8107 11.6792ZM48.0319 20.3837C47.3841 20.3837 46.8273 20.3004 46.3614 20.1337C45.8955 19.9709 45.5073 19.755 45.1966 19.486C44.8898 19.2209 44.6455 18.9368 44.4637 18.6337L45.5319 17.8837C45.6531 18.0428 45.8065 18.2247 45.9921 18.4292C46.1777 18.6375 46.4315 18.8175 46.7535 18.969C47.0792 19.1243 47.5054 19.2019 48.0319 19.2019C48.7364 19.2019 49.3179 19.0315 49.7762 18.6906C50.2345 18.3497 50.4637 17.8156 50.4637 17.0883V15.3156H50.3501C50.2516 15.4747 50.1114 15.6716 49.9296 15.9065C49.7516 16.1375 49.494 16.344 49.1569 16.5258C48.8235 16.7038 48.3728 16.7928 47.8046 16.7928C47.1001 16.7928 46.4675 16.6262 45.9069 16.2928C45.3501 15.9595 44.9088 15.4747 44.583 14.8383C44.261 14.2019 44.1001 13.4292 44.1001 12.5201C44.1001 11.6262 44.2573 10.8478 44.5716 10.1849C44.886 9.51821 45.3235 9.00306 45.8841 8.63943C46.4448 8.272 47.0925 8.08829 47.8273 8.08829C48.3955 8.08829 48.8463 8.18299 49.1796 8.37238C49.5167 8.55799 49.7743 8.77011 49.9523 9.00874C50.1341 9.24359 50.2743 9.43677 50.3728 9.58829H50.5091V8.20193H51.8046V17.1792C51.8046 17.9292 51.6341 18.539 51.2932 19.0087C50.9561 19.4822 50.5016 19.8288 49.9296 20.0485C49.3614 20.272 48.7288 20.3837 48.0319 20.3837ZM47.9864 15.5883C48.5243 15.5883 48.9788 15.4652 49.3501 15.219C49.7213 14.9728 50.0035 14.6186 50.1966 14.1565C50.3898 13.6944 50.4864 13.1413 50.4864 12.4974C50.4864 11.8686 50.3917 11.3137 50.2023 10.8326C50.0129 10.3515 49.7326 9.97465 49.3614 9.70193C48.9902 9.4292 48.5319 9.29284 47.9864 9.29284C47.4182 9.29284 46.9448 9.43677 46.566 9.72465C46.191 10.0125 45.9088 10.3989 45.7194 10.8837C45.5338 11.3686 45.441 11.9065 45.441 12.4974C45.441 13.1034 45.5357 13.6394 45.7251 14.1053C45.9182 14.5675 46.2023 14.9311 46.5773 15.1962C46.9561 15.4576 47.4258 15.5883 47.9864 15.5883ZM55.2801 5.29284V16.9292H53.9391V5.29284H55.2801ZM57.416 16.9292V8.20193H58.7569V16.9292H57.416ZM58.0978 6.74738C57.8365 6.74738 57.6111 6.65837 57.4217 6.48034C57.2361 6.30231 57.1433 6.08829 57.1433 5.83829C57.1433 5.58829 57.2361 5.37427 57.4217 5.19624C57.6111 5.01821 57.8365 4.9292 58.0978 4.9292C58.3592 4.9292 58.5827 5.01821 58.7683 5.19624C58.9577 5.37427 59.0524 5.58829 59.0524 5.83829C59.0524 6.08829 58.9577 6.30231 58.7683 6.48034C58.5827 6.65837 58.3592 6.74738 58.0978 6.74738ZM67.0747 10.1565L65.8702 10.4974C65.7944 10.2966 65.6827 10.1015 65.5349 9.91215C65.391 9.71897 65.194 9.55988 64.944 9.43488C64.694 9.30988 64.374 9.24738 63.9838 9.24738C63.4497 9.24738 63.0046 9.37049 62.6486 9.6167C62.2963 9.85912 62.1202 10.1678 62.1202 10.5428C62.1202 10.8762 62.2414 11.1394 62.4838 11.3326C62.7262 11.5258 63.105 11.6868 63.6202 11.8156L64.9156 12.1337C65.6959 12.3231 66.2774 12.6129 66.6599 13.0031C67.0425 13.3894 67.2338 13.8875 67.2338 14.4974C67.2338 14.9974 67.0899 15.4444 66.802 15.8383C66.5179 16.2322 66.1202 16.5428 65.6088 16.7701C65.0974 16.9974 64.5027 17.111 63.8247 17.111C62.9346 17.111 62.1978 16.9178 61.6145 16.5315C61.0312 16.1451 60.6618 15.5807 60.5065 14.8383L61.7793 14.5201C61.9005 14.9898 62.1296 15.3421 62.4668 15.5769C62.8077 15.8118 63.2527 15.9292 63.802 15.9292C64.427 15.9292 64.9232 15.7966 65.2906 15.5315C65.6618 15.2625 65.8474 14.9406 65.8474 14.5656C65.8474 14.2625 65.7414 14.0087 65.5293 13.8042C65.3171 13.5959 64.9914 13.4406 64.552 13.3383L63.0974 12.9974C62.2982 12.808 61.7111 12.5144 61.3361 12.1167C60.9649 11.7152 60.7793 11.2133 60.7793 10.611C60.7793 10.1186 60.9175 9.68299 61.194 9.3042C61.4743 8.92541 61.855 8.62806 62.3361 8.41215C62.8209 8.19624 63.3702 8.08829 63.9838 8.08829C64.8474 8.08829 65.5255 8.27768 66.0179 8.65647C66.5141 9.03526 66.8664 9.53526 67.0747 10.1565ZM70.2732 11.6792V16.9292H68.9323V5.29284H70.2732V9.56556H70.3868C70.5914 9.11481 70.8982 8.75685 71.3073 8.4917C71.7202 8.22276 72.2694 8.08829 72.955 8.08829C73.5497 8.08829 74.0705 8.20761 74.5175 8.44624C74.9645 8.68109 75.3111 9.04284 75.5573 9.53147C75.8073 10.0163 75.9323 10.6337 75.9323 11.3837V16.9292H74.5914V11.4747C74.5914 10.7815 74.4114 10.2455 74.0516 9.8667C73.6955 9.48412 73.2012 9.29284 72.5686 9.29284C72.1292 9.29284 71.7353 9.38564 71.3868 9.57124C71.0421 9.75685 70.7694 10.0277 70.5686 10.3837C70.3717 10.7398 70.2732 11.1716 70.2732 11.6792Z" fill="white"/>
<path d="M88 7.9292L94 13.9292L100 7.9292" stroke="white" stroke-linecap="round" stroke-linejoin="round"/>
</svg>
