<svg width="45" height="44" viewBox="0 0 45 44" fill="none" xmlns="http://www.w3.org/2000/svg">
<g clip-path="url(#clip0_5_36928)">
<path d="M42.8352 9.72095H23.7383C22.9854 9.72095 22.3743 10.332 22.3743 11.085C22.3743 11.838 22.9854 12.4491 23.7383 12.4491H38.8603L30.4795 18.9666L24.4695 15.1445L23.0072 17.447L29.8275 21.7847C30.0485 21.9266 30.3049 21.9975 30.5586 21.9975C30.8533 21.9975 31.1506 21.902 31.3962 21.7111L41.4711 13.8732V31.5459H23.7383C22.9854 31.5459 22.3743 32.157 22.3743 32.91C22.3743 33.663 22.9854 34.2741 23.7383 34.2741H42.8352C43.5882 34.2741 44.1993 33.663 44.1993 32.91V11.085C44.1993 10.332 43.5882 9.72095 42.8352 9.72095Z" fill="#1976D2"/>
<path d="M24.6094 1.85048C24.2984 1.59131 23.881 1.47946 23.4881 1.5613L1.66312 5.65349C1.01656 5.77353 0.550049 6.33552 0.550049 6.993V37.0024C0.550049 37.6571 1.01656 38.2218 1.66312 38.3419L23.4881 42.4341C23.57 42.4504 23.6545 42.4586 23.7391 42.4586C24.0556 42.4586 24.3639 42.3495 24.6094 42.1449C24.9231 41.8857 25.1032 41.4983 25.1032 41.0946V2.90081C25.1032 2.49432 24.9231 2.10966 24.6094 1.85048Z" fill="#2196F3"/>
<path d="M12.8274 31.5457C9.06804 31.5457 6.00708 27.8737 6.00708 23.3614C6.00708 18.8491 9.06804 15.177 12.8274 15.177C16.5867 15.177 19.6477 18.8491 19.6477 23.3614C19.6477 27.8737 16.5867 31.5457 12.8274 31.5457ZM12.8274 17.9051C10.5712 17.9051 8.73521 20.3522 8.73521 23.3614C8.73521 26.3705 10.5712 28.8176 12.8274 28.8176C15.0836 28.8176 16.9196 26.3705 16.9196 23.3614C16.9196 20.3522 15.0836 17.9051 12.8274 17.9051Z" fill="#FAFAFA"/>
</g>
<defs>
<clipPath id="clip0_5_36928">
<rect width="43.65" height="43.65" fill="white" transform="translate(0.550049 0.171631)"/>
</clipPath>
</defs>
</svg>
