<svg width="45" height="44" viewBox="0 0 45 44" fill="none" xmlns="http://www.w3.org/2000/svg">
<g clip-path="url(#clip0_5_36915)">
<path d="M16.3794 23.3259C13.8612 23.3259 11.8125 25.3746 11.8125 27.8928V39.3052C11.8125 41.8234 13.8612 43.872 16.3794 43.872C18.8976 43.8721 20.9463 41.8235 20.9463 39.3052V27.8928C20.9463 25.3746 18.8976 23.3259 16.3794 23.3259Z" fill="#FF4340"/>
<path d="M9.2566 23.3259H4.83533C2.39741 23.3259 0.414062 25.3094 0.414062 27.7472C0.414062 30.1851 2.39749 32.1685 4.83533 32.1685C7.27316 32.1685 9.2566 30.185 9.2566 27.7472V23.3259Z" fill="#FF4340"/>
<path d="M0.400391 16.2014C0.400391 18.7196 2.44904 20.7683 4.96727 20.7683H16.3796C18.8979 20.7683 20.9466 18.7196 20.9466 16.2014C20.9466 13.6832 18.8979 11.6345 16.3797 11.6345H4.96727C2.44904 11.6344 0.400391 13.6832 0.400391 16.2014H0.400391Z" fill="#36C6FF"/>
<path d="M16.5267 9.07667H20.948V4.6554C20.948 2.21748 18.9646 0.234131 16.5267 0.234131C14.0888 0.234131 12.1055 2.21756 12.1055 4.6554C12.1055 7.09323 14.0888 9.07667 16.5267 9.07667Z" fill="#36C6FF"/>
<path d="M28.0708 20.7681C30.589 20.7681 32.6377 18.7195 32.6377 16.2012V4.78881C32.6378 2.27058 30.589 0.221924 28.0708 0.221924C25.5526 0.221924 23.5039 2.27058 23.5039 4.78881V16.2011C23.5039 18.7195 25.5526 20.7681 28.0708 20.7681Z" fill="#0DC46E"/>
<path d="M35.1953 20.7686H39.6166C42.0545 20.7686 44.0378 18.7851 44.0378 16.3473C44.0378 13.9094 42.0544 11.926 39.6166 11.926C37.1787 11.926 35.1953 13.9095 35.1953 16.3473V20.7686Z" fill="#0DC46E"/>
<path d="M44.0501 27.8928C44.0501 25.3746 42.0014 23.3259 39.4832 23.3259H28.0708C25.5526 23.3259 23.5039 25.3746 23.5039 27.8928C23.5039 30.411 25.5526 32.4597 28.0708 32.4597H39.4831C42.0014 32.4598 44.0501 30.411 44.0501 27.8928Z" fill="#FDCB02"/>
<path d="M27.9252 35.0172H23.5039V39.4385C23.5039 41.8764 25.4873 43.8597 27.9252 43.8597C30.3631 43.8597 32.3464 41.8763 32.3464 39.4385C32.3464 37.0006 30.3631 35.0172 27.9252 35.0172Z" fill="#FDCB02"/>
</g>
<defs>
<clipPath id="clip0_5_36915">
<rect width="43.65" height="43.65" fill="white" transform="translate(0.400391 0.221924)"/>
</clipPath>
</defs>
</svg>
