<svg width="105" height="18" viewBox="0 0 105 18" fill="none" xmlns="http://www.w3.org/2000/svg">
<path d="M2.5058 10.0045C2.44316 10.0045 1.06497 10.0045 0.438515 10.0045C0.104408 10.0045 0 9.87926 0 9.56603C0 8.73077 0 7.87462 0 7.03935C0 6.70524 0.12529 6.60084 0.438515 6.60084H2.5058C2.5058 6.53819 2.5058 5.32705 2.5058 4.76325C2.5058 3.92798 2.65197 3.13448 3.06961 2.40362C3.50812 1.65188 4.13457 1.15072 4.92807 0.858376C5.45012 0.670441 5.97216 0.586914 6.53596 0.586914H8.58237C8.87471 0.586914 9 0.712204 9 1.00455V3.38506C9 3.6774 8.87471 3.80269 8.58237 3.80269C8.01856 3.80269 7.45476 3.80269 6.89095 3.82357C6.32715 3.82357 6.0348 4.09504 6.0348 4.67972C6.01392 5.30617 6.0348 5.91174 6.0348 6.55907H8.45708C8.79118 6.55907 8.91647 6.68436 8.91647 7.01847V9.54515C8.91647 9.87926 8.81207 9.98367 8.45708 9.98367C7.70534 9.98367 6.09745 9.98367 6.0348 9.98367V16.7911C6.0348 17.1461 5.93039 17.2714 5.55452 17.2714C4.67749 17.2714 3.82135 17.2714 2.94432 17.2714C2.63109 17.2714 2.5058 17.1461 2.5058 16.8329C2.5058 14.6403 2.5058 10.0672 2.5058 10.0045Z" fill="#F7F7EE"/>
<path d="M58 3.65814C57.3678 3.93545 56.6942 4.11926 55.9919 4.20851C56.7144 3.77714 57.2658 3.09926 57.5251 2.2822C56.8514 2.68382 56.1077 2.96751 55.3151 3.12582C54.6754 2.44476 53.7638 2.02295 52.7693 2.02295C50.8398 2.02295 49.2864 3.58907 49.2864 5.50901C49.2864 5.78526 49.3098 6.05089 49.3672 6.30376C46.4697 6.16245 43.9059 4.77376 42.1836 2.65832C41.8829 3.18001 41.7066 3.77714 41.7066 4.41995C41.7066 5.62695 42.3281 6.69689 43.2546 7.31632C42.6947 7.3057 42.1454 7.14314 41.68 6.88707C41.68 6.8977 41.68 6.91151 41.68 6.92532C41.68 8.61895 42.8881 10.0257 44.4722 10.3498C44.1886 10.4273 43.8794 10.4645 43.5585 10.4645C43.3354 10.4645 43.1101 10.4518 42.8987 10.405C43.3503 11.7852 44.6316 12.7999 46.1553 12.8328C44.9695 13.7604 43.4639 14.3193 41.8341 14.3193C41.5483 14.3193 41.2741 14.3065 41 14.2714C42.5438 15.267 44.3734 15.8354 46.3465 15.8354C52.7597 15.8354 56.266 10.5229 56.266 5.91807C56.266 5.76401 56.2607 5.61526 56.2533 5.46757C56.9449 4.9767 57.5261 4.36364 58 3.65814Z" fill="#F7F7EE"/>
<path d="M104.996 16.4291V16.4285H105V10.91C105 8.21025 104.425 6.13062 101.3 6.13062C99.7984 6.13062 98.7905 6.96322 98.379 7.75257H98.3355V6.38265H95.3732V16.4285H98.4578V11.4542C98.4578 10.1444 98.7036 8.87797 100.309 8.87797C101.891 8.87797 101.915 10.3727 101.915 11.5382V16.4291H104.996Z" fill="#F7F7EE"/>
<path d="M90.2239 6.35474H93.3582V16.2055H90.2239V6.35474Z" fill="#F7F7EE"/>
<path d="M91.791 1.4292C90.8023 1.4292 90 2.22776 90 3.21189C90 4.19602 90.8023 5.01129 91.791 5.01129C92.7798 5.01129 93.5821 4.19602 93.5821 3.21189C93.5815 2.22776 92.7792 1.4292 91.791 1.4292V1.4292Z" fill="#F7F7EE"/>
</svg>
