<svg width="228" height="60" viewBox="0 0 228 60" fill="none" xmlns="http://www.w3.org/2000/svg">
<rect x="0.25" width="227" height="60" rx="8" fill="#4F9CF9"/>
<path d="M25.0426 25.1094V23.4091H35.174V25.1094H31.0895V36.5H29.1207V25.1094H25.0426ZM35.8799 36.5V26.6818H37.7272V28.2415H37.8295C38.0084 27.7131 38.3238 27.2976 38.7755 26.995C39.2314 26.6882 39.7471 26.5348 40.3224 26.5348C40.4417 26.5348 40.5823 26.5391 40.7442 26.5476C40.9104 26.5561 41.0404 26.5668 41.1341 26.5795V28.4077C41.0574 28.3864 40.9211 28.3629 40.7251 28.3374C40.529 28.3075 40.333 28.2926 40.137 28.2926C39.6853 28.2926 39.2826 28.3885 38.9289 28.5803C38.5795 28.7678 38.3025 29.0298 38.0979 29.3665C37.8934 29.6989 37.7911 30.0781 37.7911 30.5043V36.5H35.8799ZM43.935 40.1818C43.6495 40.1818 43.3896 40.1584 43.1552 40.1115C42.9208 40.0689 42.7461 40.022 42.631 39.9709L43.0913 38.4048C43.4407 38.4986 43.7518 38.5391 44.0245 38.5263C44.2972 38.5135 44.538 38.4112 44.7468 38.2195C44.9599 38.0277 45.1474 37.7145 45.3093 37.2798L45.5458 36.6278L41.9535 26.6818H43.9989L46.4854 34.3011H46.5877L49.0742 26.6818H51.1261L47.0799 37.8104C46.8924 38.3217 46.6538 38.7543 46.364 39.108C46.0742 39.4659 45.729 39.7344 45.3285 39.9134C44.9279 40.0923 44.4634 40.1818 43.935 40.1818ZM59.6825 36.5L56.0518 23.4091H58.1292L60.6797 33.5469H60.8011L63.4538 23.4091H65.5121L68.1648 33.5533H68.2862L70.8302 23.4091H72.914L69.277 36.5H67.289L64.5341 26.6946H64.4318L61.6768 36.5H59.6825ZM76.1128 30.6705V36.5H74.2016V23.4091H76.0873V28.2798H76.2087C76.4388 27.7514 76.7904 27.3317 77.2634 27.0206C77.7364 26.7095 78.3543 26.554 79.1171 26.554C79.7904 26.554 80.3784 26.6925 80.8813 26.9695C81.3884 27.2464 81.7804 27.6598 82.0574 28.2095C82.3387 28.755 82.4793 29.4368 82.4793 30.255V36.5H80.5681V30.4851C80.5681 29.7649 80.3827 29.2067 80.012 28.8104C79.6412 28.4098 79.1256 28.2095 78.4651 28.2095C78.0134 28.2095 77.6086 28.3054 77.2506 28.4972C76.8969 28.6889 76.6178 28.9702 76.4132 29.3409C76.213 29.7074 76.1128 30.1506 76.1128 30.6705ZM84.6697 36.5V26.6818H86.5809V36.5H84.6697ZM85.6349 25.1669C85.3025 25.1669 85.017 25.0561 84.7784 24.8345C84.544 24.6087 84.4268 24.3402 84.4268 24.0291C84.4268 23.7138 84.544 23.4453 84.7784 23.2237C85.017 22.9979 85.3025 22.8849 85.6349 22.8849C85.9673 22.8849 86.2507 22.9979 86.4851 23.2237C86.7237 23.4453 86.843 23.7138 86.843 24.0291C86.843 24.3402 86.7237 24.6087 86.4851 24.8345C86.2507 25.0561 85.9673 25.1669 85.6349 25.1669ZM93.3752 26.6818V28.2159H88.0123V26.6818H93.3752ZM89.4505 24.3295H91.3617V33.6172C91.3617 33.9879 91.4171 34.267 91.5279 34.4545C91.6387 34.6378 91.7815 34.7635 91.9562 34.8317C92.1352 34.8956 92.3291 34.9276 92.5379 34.9276C92.6913 34.9276 92.8255 34.9169 92.9406 34.8956C93.0556 34.8743 93.1451 34.8572 93.209 34.8445L93.5542 36.4233C93.4434 36.4659 93.2858 36.5085 93.0812 36.5511C92.8767 36.598 92.621 36.6236 92.3142 36.6278C91.8113 36.6364 91.3426 36.5469 90.9079 36.3594C90.4733 36.1719 90.1217 35.8821 89.8532 35.4901C89.5848 35.098 89.4505 34.6058 89.4505 34.0135V24.3295ZM99.2555 36.6982C98.2881 36.6982 97.4551 36.4915 96.7562 36.0781C96.0616 35.6605 95.5247 35.0746 95.1454 34.3203C94.7704 33.5618 94.5829 32.6733 94.5829 31.6548C94.5829 30.6491 94.7704 29.7628 95.1454 28.9957C95.5247 28.2287 96.0531 27.63 96.7306 27.1996C97.4124 26.7692 98.2093 26.554 99.1212 26.554C99.6752 26.554 100.212 26.6456 100.732 26.8288C101.252 27.0121 101.719 27.2997 102.132 27.6918C102.545 28.0838 102.871 28.593 103.11 29.2195C103.349 29.8416 103.468 30.598 103.468 31.4886V32.1662H95.6631V30.7344H101.595C101.595 30.2315 101.493 29.7862 101.288 29.3984C101.084 29.0064 100.796 28.6974 100.425 28.4716C100.059 28.2457 99.6283 28.1328 99.134 28.1328C98.5971 28.1328 98.1283 28.2649 97.7278 28.5291C97.3315 28.7891 97.0247 29.13 96.8073 29.5518C96.5943 29.9695 96.4877 30.4233 96.4877 30.9134V32.032C96.4877 32.6882 96.6028 33.2464 96.8329 33.7067C97.0673 34.1669 97.3933 34.5185 97.8109 34.7614C98.2285 35 98.7164 35.1193 99.2747 35.1193C99.6369 35.1193 99.9671 35.0682 100.265 34.9659C100.564 34.8594 100.822 34.7017 101.039 34.4929C101.256 34.2841 101.422 34.0263 101.537 33.7195L103.346 34.0455C103.202 34.5781 102.942 35.0447 102.567 35.4453C102.196 35.8416 101.729 36.1506 101.167 36.3722C100.608 36.5895 99.9714 36.6982 99.2555 36.6982ZM105.228 40.1818V26.6818H107.095V28.2734H107.255C107.365 28.0689 107.525 27.8324 107.734 27.5639C107.943 27.2955 108.233 27.0611 108.603 26.8608C108.974 26.6562 109.464 26.554 110.074 26.554C110.866 26.554 111.574 26.7543 112.196 27.1548C112.818 27.5554 113.306 28.1328 113.66 28.8871C114.017 29.6413 114.196 30.549 114.196 31.6101C114.196 32.6712 114.02 33.581 113.666 34.3395C113.312 35.0937 112.826 35.6754 112.209 36.0845C111.591 36.4893 110.885 36.6918 110.093 36.6918C109.496 36.6918 109.008 36.5916 108.629 36.3913C108.254 36.1911 107.96 35.9567 107.747 35.6882C107.534 35.4197 107.37 35.1811 107.255 34.9723H107.14V40.1818H105.228ZM107.101 31.5909C107.101 32.2812 107.201 32.8864 107.402 33.4062C107.602 33.9261 107.892 34.3331 108.271 34.6271C108.65 34.9169 109.115 35.0618 109.664 35.0618C110.235 35.0618 110.713 34.9105 111.096 34.608C111.48 34.3011 111.77 33.8857 111.966 33.3615C112.166 32.8374 112.266 32.2472 112.266 31.5909C112.266 30.9432 112.168 30.3615 111.972 29.8459C111.78 29.3303 111.49 28.9233 111.103 28.625C110.719 28.3267 110.24 28.1776 109.664 28.1776C109.11 28.1776 108.642 28.3203 108.258 28.6058C107.879 28.8913 107.591 29.2898 107.395 29.8011C107.199 30.3125 107.101 30.9091 107.101 31.5909ZM118.835 36.7173C118.213 36.7173 117.65 36.6023 117.148 36.3722C116.645 36.1378 116.246 35.799 115.952 35.3558C115.662 34.9126 115.518 34.3693 115.518 33.7259C115.518 33.1719 115.624 32.7159 115.837 32.358C116.05 32 116.338 31.7166 116.7 31.5078C117.062 31.299 117.467 31.1413 117.915 31.0348C118.362 30.9283 118.818 30.8473 119.282 30.7919C119.871 30.7237 120.348 30.6683 120.714 30.6257C121.081 30.5788 121.347 30.5043 121.513 30.402C121.679 30.2997 121.763 30.1335 121.763 29.9034V29.8587C121.763 29.3004 121.605 28.8679 121.29 28.5611C120.978 28.2543 120.514 28.1009 119.896 28.1009C119.253 28.1009 118.746 28.2436 118.375 28.5291C118.008 28.8104 117.755 29.1236 117.614 29.4688L115.818 29.0597C116.031 28.4631 116.342 27.9815 116.751 27.6151C117.165 27.2443 117.64 26.9759 118.177 26.8097C118.714 26.6392 119.278 26.554 119.871 26.554C120.263 26.554 120.678 26.6009 121.117 26.6946C121.56 26.7841 121.974 26.9503 122.357 27.1932C122.745 27.4361 123.062 27.7834 123.309 28.2351C123.557 28.6825 123.68 29.2642 123.68 29.9801V36.5H121.814V35.1577H121.737C121.613 35.4048 121.428 35.6477 121.181 35.8864C120.934 36.125 120.616 36.3232 120.228 36.4808C119.841 36.6385 119.376 36.7173 118.835 36.7173ZM119.25 35.1832C119.779 35.1832 120.231 35.0788 120.606 34.87C120.985 34.6612 121.273 34.3885 121.469 34.0518C121.669 33.7109 121.769 33.3466 121.769 32.9588V31.6932C121.701 31.7614 121.569 31.8253 121.373 31.8849C121.181 31.9403 120.961 31.9893 120.714 32.032C120.467 32.0703 120.226 32.1065 119.992 32.1406C119.758 32.1705 119.562 32.196 119.404 32.2173C119.033 32.2642 118.694 32.343 118.388 32.4538C118.085 32.5646 117.842 32.7244 117.659 32.9332C117.48 33.1378 117.39 33.4105 117.39 33.7514C117.39 34.2244 117.565 34.5824 117.915 34.8253C118.264 35.0639 118.709 35.1832 119.25 35.1832ZM130.001 36.6982C129.051 36.6982 128.233 36.483 127.547 36.0526C126.865 35.6179 126.341 35.0192 125.974 34.2564C125.608 33.4936 125.425 32.62 125.425 31.6357C125.425 30.6385 125.612 29.7585 125.987 28.9957C126.362 28.2287 126.891 27.63 127.572 27.1996C128.254 26.7692 129.058 26.554 129.982 26.554C130.728 26.554 131.393 26.6925 131.977 26.9695C132.56 27.2422 133.031 27.6257 133.389 28.12C133.751 28.6143 133.967 29.1918 134.035 29.8523H132.175C132.072 29.392 131.838 28.9957 131.472 28.6634C131.109 28.331 130.624 28.1648 130.014 28.1648C129.482 28.1648 129.015 28.3054 128.614 28.5866C128.218 28.8636 127.909 29.2599 127.688 29.7756C127.466 30.2869 127.355 30.892 127.355 31.5909C127.355 32.3068 127.464 32.9247 127.681 33.4446C127.898 33.9645 128.205 34.3672 128.602 34.6527C129.002 34.9382 129.473 35.081 130.014 35.081C130.376 35.081 130.705 35.0149 130.999 34.8828C131.297 34.7464 131.546 34.5526 131.746 34.3011C131.951 34.0497 132.094 33.7472 132.175 33.3935H134.035C133.967 34.0284 133.76 34.5952 133.415 35.0938C133.07 35.5923 132.607 35.9844 132.028 36.2699C131.452 36.5554 130.777 36.6982 130.001 36.6982ZM139.95 36.6982C138.983 36.6982 138.15 36.4915 137.451 36.0781C136.756 35.6605 136.219 35.0746 135.84 34.3203C135.465 33.5618 135.278 32.6733 135.278 31.6548C135.278 30.6491 135.465 29.7628 135.84 28.9957C136.219 28.2287 136.748 27.63 137.425 27.1996C138.107 26.7692 138.904 26.554 139.816 26.554C140.37 26.554 140.907 26.6456 141.427 26.8288C141.947 27.0121 142.413 27.2997 142.827 27.6918C143.24 28.0838 143.566 28.593 143.805 29.2195C144.043 29.8416 144.163 30.598 144.163 31.4886V32.1662H136.358V30.7344H142.29C142.29 30.2315 142.187 29.7862 141.983 29.3984C141.778 29.0064 141.491 28.6974 141.12 28.4716C140.754 28.2457 140.323 28.1328 139.829 28.1328C139.292 28.1328 138.823 28.2649 138.423 28.5291C138.026 28.7891 137.719 29.13 137.502 29.5518C137.289 29.9695 137.182 30.4233 137.182 30.9134V32.032C137.182 32.6882 137.298 33.2464 137.528 33.7067C137.762 34.1669 138.088 34.5185 138.506 34.7614C138.923 35 139.411 35.1193 139.969 35.1193C140.332 35.1193 140.662 35.0682 140.96 34.9659C141.258 34.8594 141.516 34.7017 141.734 34.4929C141.951 34.2841 142.117 34.0263 142.232 33.7195L144.041 34.0455C143.896 34.5781 143.636 35.0447 143.261 35.4453C142.891 35.8416 142.424 36.1506 141.861 36.3722C141.303 36.5895 140.666 36.6982 139.95 36.6982ZM154.999 26.6818V28.2159H149.451V26.6818H154.999ZM150.972 36.5V25.544C150.972 24.9304 151.107 24.4212 151.375 24.0163C151.644 23.6072 151.999 23.3026 152.443 23.1023C152.886 22.8977 153.367 22.7955 153.887 22.7955C154.271 22.7955 154.599 22.8274 154.872 22.8913C155.144 22.951 155.347 23.0064 155.479 23.0575L155.031 24.6044C154.942 24.5788 154.827 24.549 154.686 24.5149C154.546 24.4766 154.375 24.4574 154.175 24.4574C153.71 24.4574 153.378 24.5724 153.178 24.8026C152.982 25.0327 152.884 25.3651 152.884 25.7997V36.5H150.972ZM156.611 36.5V26.6818H158.459V28.2415H158.561C158.74 27.7131 159.055 27.2976 159.507 26.995C159.963 26.6882 160.479 26.5348 161.054 26.5348C161.173 26.5348 161.314 26.5391 161.476 26.5476C161.642 26.5561 161.772 26.5668 161.866 26.5795V28.4077C161.789 28.3864 161.653 28.3629 161.457 28.3374C161.261 28.3075 161.064 28.2926 160.868 28.2926C160.417 28.2926 160.014 28.3885 159.66 28.5803C159.311 28.7678 159.034 29.0298 158.829 29.3665C158.625 29.6989 158.523 30.0781 158.523 30.5043V36.5H156.611ZM167.04 36.6982C166.072 36.6982 165.239 36.4915 164.54 36.0781C163.846 35.6605 163.309 35.0746 162.929 34.3203C162.554 33.5618 162.367 32.6733 162.367 31.6548C162.367 30.6491 162.554 29.7628 162.929 28.9957C163.309 28.2287 163.837 27.63 164.515 27.1996C165.197 26.7692 165.993 26.554 166.905 26.554C167.459 26.554 167.996 26.6456 168.516 26.8288C169.036 27.0121 169.503 27.2997 169.916 27.6918C170.329 28.0838 170.655 28.593 170.894 29.2195C171.133 29.8416 171.252 30.598 171.252 31.4886V32.1662H163.447V30.7344H169.379C169.379 30.2315 169.277 29.7862 169.072 29.3984C168.868 29.0064 168.58 28.6974 168.209 28.4716C167.843 28.2457 167.412 28.1328 166.918 28.1328C166.381 28.1328 165.912 28.2649 165.512 28.5291C165.116 28.7891 164.809 29.13 164.591 29.5518C164.378 29.9695 164.272 30.4233 164.272 30.9134V32.032C164.272 32.6882 164.387 33.2464 164.617 33.7067C164.851 34.1669 165.177 34.5185 165.595 34.7614C166.013 35 166.5 35.1193 167.059 35.1193C167.421 35.1193 167.751 35.0682 168.049 34.9659C168.348 34.8594 168.606 34.7017 168.823 34.4929C169.04 34.2841 169.206 34.0263 169.322 33.7195L171.13 34.0455C170.986 34.5781 170.726 35.0447 170.351 35.4453C169.98 35.8416 169.513 36.1506 168.951 36.3722C168.393 36.5895 167.755 36.6982 167.04 36.6982ZM177.244 36.6982C176.277 36.6982 175.444 36.4915 174.745 36.0781C174.05 35.6605 173.513 35.0746 173.134 34.3203C172.759 33.5618 172.571 32.6733 172.571 31.6548C172.571 30.6491 172.759 29.7628 173.134 28.9957C173.513 28.2287 174.042 27.63 174.719 27.1996C175.401 26.7692 176.198 26.554 177.11 26.554C177.664 26.554 178.201 26.6456 178.721 26.8288C179.24 27.0121 179.707 27.2997 180.12 27.6918C180.534 28.0838 180.86 28.593 181.098 29.2195C181.337 29.8416 181.456 30.598 181.456 31.4886V32.1662H173.652V30.7344H179.583C179.583 30.2315 179.481 29.7862 179.277 29.3984C179.072 29.0064 178.784 28.6974 178.414 28.4716C178.047 28.2457 177.617 28.1328 177.123 28.1328C176.586 28.1328 176.117 28.2649 175.716 28.5291C175.32 28.7891 175.013 29.13 174.796 29.5518C174.583 29.9695 174.476 30.4233 174.476 30.9134V32.032C174.476 32.6882 174.591 33.2464 174.821 33.7067C175.056 34.1669 175.382 34.5185 175.799 34.7614C176.217 35 176.705 35.1193 177.263 35.1193C177.625 35.1193 177.956 35.0682 178.254 34.9659C178.552 34.8594 178.81 34.7017 179.027 34.4929C179.245 34.2841 179.411 34.0263 179.526 33.7195L181.335 34.0455C181.19 34.5781 180.93 35.0447 180.555 35.4453C180.184 35.8416 179.718 36.1506 179.155 36.3722C178.597 36.5895 177.96 36.6982 177.244 36.6982Z" fill="white"/>
<path d="M193.25 30H203.25" stroke="white" stroke-linecap="round" stroke-linejoin="round"/>
<path d="M198.25 25L203.25 30L198.25 35" stroke="white" stroke-linecap="round" stroke-linejoin="round"/>
</svg>
