<svg width="127" height="60" viewBox="0 0 127 60" fill="none" xmlns="http://www.w3.org/2000/svg">
<rect x="0.25" width="126" height="60" rx="8" fill="#FFE492"/>
<path d="M41.6882 36.5V23.4091H43.6634V34.7997H49.5952V36.5H41.6882ZM55.4706 36.6982C54.5502 36.6982 53.7469 36.4872 53.0608 36.0653C52.3747 35.6435 51.8421 35.0533 51.4628 34.2947C51.0835 33.5362 50.8939 32.6499 50.8939 31.6357C50.8939 30.6172 51.0835 29.7266 51.4628 28.9638C51.8421 28.201 52.3747 27.6087 53.0608 27.1868C53.7469 26.7649 54.5502 26.554 55.4706 26.554C56.3911 26.554 57.1943 26.7649 57.8804 27.1868C58.5665 27.6087 59.0992 28.201 59.4784 28.9638C59.8577 29.7266 60.0473 30.6172 60.0473 31.6357C60.0473 32.6499 59.8577 33.5362 59.4784 34.2947C59.0992 35.0533 58.5665 35.6435 57.8804 36.0653C57.1943 36.4872 56.3911 36.6982 55.4706 36.6982ZM55.477 35.0938C56.0736 35.0938 56.5679 34.9361 56.96 34.6207C57.352 34.3054 57.6418 33.8857 57.8293 33.3615C58.021 32.8374 58.1169 32.2599 58.1169 31.6293C58.1169 31.0028 58.021 30.4276 57.8293 29.9034C57.6418 29.375 57.352 28.951 56.96 28.6314C56.5679 28.3118 56.0736 28.152 55.477 28.152C54.8762 28.152 54.3776 28.3118 53.9813 28.6314C53.5892 28.951 53.2973 29.375 53.1056 29.9034C52.9181 30.4276 52.8243 31.0028 52.8243 31.6293C52.8243 32.2599 52.9181 32.8374 53.1056 33.3615C53.2973 33.8857 53.5892 34.3054 53.9813 34.6207C54.3776 34.9361 54.8762 35.0938 55.477 35.0938ZM65.9371 40.3864C65.1573 40.3864 64.4861 40.2841 63.9236 40.0795C63.3654 39.875 62.9094 39.6044 62.5557 39.2678C62.2021 38.9311 61.9378 38.5625 61.7631 38.1619L63.4059 37.4844C63.5209 37.6719 63.6744 37.87 63.8661 38.0788C64.0621 38.2919 64.3263 38.473 64.6587 38.6222C64.9954 38.7713 65.4279 38.8459 65.9563 38.8459C66.6807 38.8459 67.2795 38.669 67.7525 38.3153C68.2255 37.9659 68.462 37.4077 68.462 36.6406V34.7102H68.3405C68.2255 34.919 68.0593 35.1513 67.842 35.407C67.6289 35.6626 67.3349 35.8842 66.9599 36.0717C66.5849 36.2592 66.0969 36.353 65.4961 36.353C64.7205 36.353 64.0217 36.1719 63.3995 35.8097C62.7816 35.4432 62.2915 34.9041 61.9293 34.1925C61.5714 33.4766 61.3924 32.5966 61.3924 31.5526C61.3924 30.5085 61.5692 29.6136 61.9229 28.8679C62.2809 28.1222 62.7709 27.5511 63.3931 27.1548C64.0153 26.7543 64.7205 26.554 65.5089 26.554C66.1182 26.554 66.6104 26.6562 66.9854 26.8608C67.3604 27.0611 67.6523 27.2955 67.8611 27.5639C68.0742 27.8324 68.2383 28.0689 68.3533 28.2734H68.494V26.6818H70.3668V36.7173C70.3668 37.5611 70.1708 38.2536 69.7788 38.7947C69.3867 39.3359 68.8562 39.7365 68.1871 39.9964C67.5224 40.2564 66.7724 40.3864 65.9371 40.3864ZM65.918 34.7678C66.4677 34.7678 66.9322 34.6399 67.3114 34.3842C67.695 34.1243 67.9847 33.7536 68.1807 33.272C68.381 32.7862 68.4812 32.2045 68.4812 31.527C68.4812 30.8665 68.3832 30.2848 68.1871 29.782C67.9911 29.2791 67.7035 28.8871 67.3242 28.6058C66.945 28.3203 66.4762 28.1776 65.918 28.1776C65.3427 28.1776 64.8633 28.3267 64.4798 28.625C64.0962 28.919 63.8065 29.3196 63.6104 29.8267C63.4187 30.3338 63.3228 30.9006 63.3228 31.527C63.3228 32.1705 63.4208 32.7351 63.6168 33.2209C63.8128 33.7067 64.1026 34.0859 64.4861 34.3587C64.8739 34.6314 65.3512 34.7678 65.918 34.7678ZM72.57 36.5V26.6818H74.4813V36.5H72.57ZM73.5352 25.1669C73.2028 25.1669 72.9173 25.0561 72.6787 24.8345C72.4443 24.6087 72.3271 24.3402 72.3271 24.0291C72.3271 23.7138 72.4443 23.4453 72.6787 23.2237C72.9173 22.9979 73.2028 22.8849 73.5352 22.8849C73.8676 22.8849 74.151 22.9979 74.3854 23.2237C74.624 23.4453 74.7433 23.7138 74.7433 24.0291C74.7433 24.3402 74.624 24.6087 74.3854 24.8345C74.151 25.0561 73.8676 25.1669 73.5352 25.1669ZM78.6037 30.6705V36.5H76.6925V26.6818H78.527V28.2798H78.6484C78.8743 27.7599 79.228 27.3423 79.7095 27.027C80.1953 26.7116 80.8068 26.554 81.544 26.554C82.2131 26.554 82.799 26.6946 83.3018 26.9759C83.8047 27.2528 84.1946 27.6662 84.4716 28.2159C84.7486 28.7656 84.8871 29.4453 84.8871 30.255V36.5H82.9758V30.4851C82.9758 29.7734 82.7905 29.2173 82.4197 28.8168C82.049 28.4119 81.5398 28.2095 80.892 28.2095C80.4489 28.2095 80.0547 28.3054 79.7095 28.4972C79.3686 28.6889 79.098 28.9702 78.8977 29.3409C78.7017 29.7074 78.6037 30.1506 78.6037 30.6705Z" fill="#043873"/>
</svg>
